<svg width="48" height="48" fill="none" xmlns="http://www.w3.org/2000/svg"><g clip-path="url(#clip0_168_445)"><path d="M7.5 10.5a1.5 1.5 0 110-3h33a1.5 1.5 0 010 3h-33zm6-6a1.5 1.5 0 010-3h21a1.5 1.5 0 010 3h-21zM0 39a4.5 4.5 0 004.5 4.5h39A4.5 4.5 0 0048 39V18a4.5 4.5 0 00-4.5-4.5h-39A4.5 4.5 0 000 18v21zm4.5 1.5A1.5 1.5 0 013 39V18a1.5 1.5 0 011.5-1.5h39A1.5 1.5 0 0145 18v21a1.5 1.5 0 01-1.5 1.5h-39z" fill="#908294"/></g><defs><clipPath id="clip0_168_445"><path fill="#fff" d="M0 0h48v48H0z"/></clipPath></defs></svg>