<svg width="48" height="48" fill="none" xmlns="http://www.w3.org/2000/svg"><path d="M42.667 20h-1.334v-8A1.333 1.333 0 0040 10.666H8a1.333 1.333 0 01-1.333-1.093v-.48A1.333 1.333 0 018 8h31.44a1.333 1.333 0 000-2.667H8a4 4 0 00-4 4c-.01.16-.01.32 0 .48V37.24a5.466 5.466 0 005.507 5.426H40a1.333 1.333 0 001.334-1.333v-8h1.333A1.334 1.334 0 0044 32V21.333A1.333 1.333 0 0042.667 20zm-4 20H9.507a2.814 2.814 0 01-2.84-2.76V13.173c.433.125.883.18 1.333.16h30.667V20h-9.334a6.666 6.666 0 100 13.333h9.334V40zm2.666-9.334h-12a4 4 0 110-8h12v8z" fill="#908294"/><path d="M30.68 28.667a2 2 0 100-4 2 2 0 000 4z" fill="#908294"/></svg>