<svg width="173" height="12" fill="none" xmlns="http://www.w3.org/2000/svg"><path d="M1 5a1 1 0 000 2V5zm171.774 1L167 .227 161.227 6 167 11.774 172.774 6zM6.929 7a1 1 0 100-2v2zm11.857-2a1 1 0 100 2V5zm11.857 2a1 1 0 000-2v2zM42.5 5a1 1 0 100 2V5zm11.857 2a1 1 0 100-2v2zm11.857-2a1 1 0 100 2V5zm11.857 2a1 1 0 100-2v2zM89.93 5a1 1 0 100 2V5zm11.857 2a1 1 0 000-2v2zm11.857-2a1 1 0 000 2V5zM125.5 7a1 1 0 000-2v2zm11.857-2a1 1 0 000 2V5zm11.857 2a1 1 0 100-2v2zm11.857-2a1 1 0 000 2V5zM1 7h5.929V5H1v2zm17.786 0h11.857V5H18.786v2zM42.5 7h11.857V5H42.5v2zm23.714 0h11.857V5H66.214v2zM89.93 7h11.857V5H89.929v2zm23.714 0H125.5V5h-11.857v2zm23.714 0h11.857V5h-11.857v2zm23.714 0H167V5h-5.929v2z" fill="#794187"/></svg>