<svg xmlns="http://www.w3.org/2000/svg"><symbol id="heart" viewBox="0 0 28 26"><path d="M20.3 0c-2.436 0-4.774 1.134-6.3 2.926C12.474 1.134 10.136 0 7.7 0 3.388 0 0 3.388 0 7.7c0 5.292 4.76 9.604 11.97 16.156L14 25.69l2.03-1.848C23.24 17.304 28 12.992 28 7.7 28 3.388 24.612 0 20.3 0zm-6.16 21.77l-.14.14-.14-.14C7.196 15.736 2.8 11.746 2.8 7.7c0-2.8 2.1-4.9 4.9-4.9 2.156 0 4.256 1.386 4.998 3.304h2.618C16.044 4.186 18.144 2.8 20.3 2.8c2.8 0 4.9 2.1 4.9 4.9 0 4.046-4.396 8.036-11.06 14.07z" fill="#76607A"/></symbol><symbol id="arrow-right" viewBox="0 0 54 54"><path d="M27 0a27 27 0 110 54 27 27 0 010-54zM15.187 25.313a1.687 1.687 0 100 3.375H34.74l-7.246 7.242a1.69 1.69 0 002.39 2.39l10.124-10.125a1.688 1.688 0 000-2.39L29.882 15.68a1.69 1.69 0 00-2.39 2.39l7.247 7.242H15.188z" fill="#F5FBF2"/></symbol></svg>