<svg xmlns="http://www.w3.org/2000/svg"><symbol id="wallet" viewBox="0 0 48 48"><path d="M42.667 20h-1.334v-8A1.333 1.333 0 0040 10.666H8a1.333 1.333 0 01-1.333-1.093v-.48A1.333 1.333 0 018 8h31.44a1.333 1.333 0 000-2.667H8a4 4 0 00-4 4c-.01.16-.01.32 0 .48V37.24a5.466 5.466 0 005.507 5.426H40a1.333 1.333 0 001.334-1.333v-8h1.333A1.334 1.334 0 0044 32V21.333A1.333 1.333 0 0042.667 20zm-4 20H9.507a2.814 2.814 0 01-2.84-2.76V13.173c.433.125.883.18 1.333.16h30.667V20h-9.334a6.666 6.666 0 100 13.333h9.334V40zm2.666-9.334h-12a4 4 0 110-8h12v8z" fill="#908294"/><path d="M30.68 28.667a2 2 0 100-4 2 2 0 000 4z" fill="#908294"/></symbol><symbol id="collection" viewBox="0 0 48 48"><path d="M7.5 10.5a1.5 1.5 0 110-3h33a1.5 1.5 0 010 3h-33zm6-6a1.5 1.5 0 010-3h21a1.5 1.5 0 010 3h-21zM0 39a4.5 4.5 0 004.5 4.5h39A4.5 4.5 0 0048 39V18a4.5 4.5 0 00-4.5-4.5h-39A4.5 4.5 0 000 18v21zm4.5 1.5A1.5 1.5 0 013 39V18a1.5 1.5 0 011.5-1.5h39A1.5 1.5 0 0145 18v21a1.5 1.5 0 01-1.5 1.5h-39z" fill="#908294"/></symbol><symbol id="fluent-collection" viewBox="0 0 48 48"><path d="M22.132 16.008l.368-.01h15a6.5 6.5 0 016.49 6.13l.01.37v15a6.5 6.5 0 01-6.132 6.49l-.368.01h-15a6.5 6.5 0 01-6.49-6.132L16 37.5v-15a6.5 6.5 0 016.132-6.49v-.002zm15.368 2.99h-15a3.5 3.5 0 00-3.488 3.212l-.012.288v15a3.5 3.5 0 003.214 3.488l.286.012h15a3.5 3.5 0 003.488-3.214l.012-.286v-15a3.5 3.5 0 00-3.5-3.5zM30 22a1.5 1.5 0 011.5 1.5v4.996h5a1.5 1.5 0 010 3h-5V36.5a1.5 1.5 0 11-3 0v-5.004h-5a1.5 1.5 0 110-3h5V23.5A1.5 1.5 0 0130 22zm1.164-13.534l.104.354 1.386 5.176h-3.106l-1.176-4.4a3.5 3.5 0 00-4.288-2.476L9.596 11.004a3.5 3.5 0 00-2.54 3.99l.064.296 3.884 14.488A3.5 3.5 0 0014 32.352v3.012a6.504 6.504 0 01-5.79-4.456l-.104-.352-3.882-14.49a6.5 6.5 0 014.24-7.856l.356-.104 14.488-3.882a6.5 6.5 0 017.856 4.24v.002z" fill="#908294"/></symbol><symbol id="sales-report" viewBox="0 0 48 48"><path d="M41 14L24 4 7 14v20l17 10 17-10V14z" stroke="#908294" stroke-width="3" stroke-linejoin="round"/><path d="M24 22v8m8-12v12m-16-4v4" stroke="#908294" stroke-width="3" stroke-linecap="round" stroke-linejoin="round"/></symbol></svg>